<?xml version="1.0" standalone="no"?>
<!DOCTYPE svg PUBLIC "-//W3C//DTD SVG 20010904//EN"
 "http://www.w3.org/TR/2001/REC-SVG-20010904/DTD/svg10.dtd">
<svg version="1.0" xmlns="http://www.w3.org/2000/svg"
 width="1803.000000pt" height="1803.000000pt" viewBox="0 0 1803.000000 1803.000000"
 preserveAspectRatio="xMidYMid meet">
<metadata>
Created by potrace 1.11, written by Peter Selinger 2001-2013
</metadata>
<g transform="translate(0.000000,1803.000000) scale(0.100000,-0.100000)"
fill="#000000" stroke="none">
<path d="M8787 16493 c-1 -1 -72 -4 -157 -8 -85 -4 -171 -8 -190 -10 -19 -2
-73 -6 -119 -10 -46 -4 -91 -8 -100 -10 -9 -1 -47 -6 -84 -10 -37 -3 -76 -8
-85 -10 -9 -1 -46 -6 -82 -10 -36 -4 -67 -8 -70 -10 -3 -2 -26 -6 -51 -9 -39
-5 -245 -42 -344 -61 -16 -3 -39 -8 -50 -10 -11 -2 -42 -9 -70 -15 -27 -6 -57
-13 -65 -15 -8 -2 -37 -9 -65 -15 -27 -6 -57 -13 -65 -15 -236 -52 -811 -242
-1054 -349 -17 -7 -54 -23 -82 -34 -256 -105 -655 -312 -969 -505 -207 -126
-598 -400 -740 -518 -155 -129 -299 -251 -334 -283 -340 -313 -607 -596 -857
-911 -212 -267 -435 -589 -574 -830 -10 -16 -40 -68 -67 -115 -168 -291 -330
-627 -468 -975 -88 -222 -232 -655 -244 -735 -1 -3 -405 -5 -899 -5 l-897 0
-3 -2015 -2 -2015 902 0 903 0 13 -40 c7 -22 46 -141 86 -265 243 -747 611
-1460 1084 -2100 74 -100 266 -346 282 -360 3 -3 30 -34 60 -70 30 -36 71 -83
91 -105 358 -393 703 -711 1069 -985 69 -51 141 -105 160 -120 204 -156 622
-410 954 -580 577 -296 1254 -537 1836 -654 136 -27 216 -42 270 -51 19 -3 42
-8 50 -10 8 -2 35 -6 60 -9 25 -3 54 -8 65 -10 25 -4 95 -14 155 -22 25 -3 63
-7 85 -10 22 -3 56 -6 75 -8 109 -10 189 -18 220 -21 197 -24 939 -24 1165 0
22 2 72 7 110 10 39 4 88 8 110 11 22 3 59 7 81 9 50 4 165 20 319 45 39 7 79
13 90 15 42 6 199 36 265 51 14 3 36 7 50 10 15 2 80 18 145 35 66 16 131 32
145 35 53 11 312 88 465 139 246 81 558 204 750 295 193 91 378 184 475 240
14 8 27 15 30 15 3 0 16 8 30 16 14 9 93 55 175 104 83 48 185 112 228 142 43
29 80 53 83 53 4 0 29 17 209 144 166 117 420 319 604 481 183 160 498 476
662 665 137 157 262 308 333 405 17 22 33 42 36 45 15 12 187 259 282 405 118
181 126 193 201 325 30 52 65 113 77 135 37 65 121 224 163 310 52 105 127
266 127 271 0 2 14 33 30 69 91 200 225 563 300 820 18 61 36 112 40 115 5 3
414 5 910 5 540 0 904 4 908 9 4 7 7 3842 3 3991 l-1 30 -901 0 c-495 0 -904
2 -908 5 -3 3 -28 77 -54 165 -84 280 -189 564 -310 840 -73 168 -243 511
-304 613 -24 41 -43 75 -43 78 0 2 -32 57 -71 121 -40 65 -77 127 -83 138 -13
24 -166 254 -225 338 -75 109 -270 367 -291 387 -3 3 -31 37 -62 75 -31 39
-67 82 -80 97 -13 14 -32 37 -42 50 -119 141 -485 514 -647 658 -149 133 -349
296 -509 416 -91 68 -169 127 -175 132 -24 20 -289 194 -375 247 -301 185
-639 363 -921 485 -79 34 -159 69 -177 77 -19 8 -102 41 -185 73 -384 146
-875 285 -1232 350 -177 32 -342 59 -395 65 -19 2 -48 6 -65 9 -16 2 -59 8
-95 11 -36 4 -78 8 -95 10 -16 2 -64 7 -105 10 -41 4 -91 8 -110 10 -109 12
-764 27 -773 18z"/>
</g>
</svg>
